# xmcd
#
# Track frame offsets: 
#        150
#        16234
#        45670
#        63532
#        87635
#        111847
#        134882
#        165902
#        188857
#        202000
#        225087
#        242652
#
# Disc length: 3532 seconds
#
# Revision: 3
# Processed by: cddbd v1.5.2PL0 Copyright (c) Steve Scherf et al.
# Submitted via: ExactAudioCopy v0.95a4
#
DISCID=a00dca0c
DTITLE=Neal Schon - Piranha Blues
DYEAR=1999
DGENRE=Rock
TTITLE0=Whiskey, Women and Blues
TTITLE1=Gotta Get Back To You
TTITLE2=Lonesome Road
TTITLE3=Hole In My Pocket
TTITLE4=Walkin' Out The Door
TTITLE5=I'm In Love
TTITLE6=Love Trance
TTITLE7=Slow Down
TTITLE8=Play The Blues
TTITLE9=A Girl Like You
TTITLE10=Hey, Hey, Babe
TTITLE11=Blues For Miles
EXTD=YEAR: 999  ID3G:   0
EXTT0=
EXTT1=
EXTT2=
EXTT3=
EXTT4=
EXTT5=
EXTT6=
EXTT7=
EXTT8=
EXTT9=
EXTT10=
EXTT11=
PLAYORDER=
